<svg width="165" height="65" viewBox="0 0 165 65" fill="none" xmlns="http://www.w3.org/2000/svg">
<g clip-path="url(#clip0_379_23236)">
<path d="M0 10.8321C0 3.61103 4.72432 0 14.1739 0H17.7176C29.5284 0 35.4352 4.81503 35.4352 14.4431C35.4352 19.2582 33.9587 22.8692 31.0058 25.2752C33.9587 27.6832 35.4352 31.2943 35.4352 36.1083C35.4352 45.7374 29.5284 50.5515 17.7176 50.5515H14.1739C4.72432 50.5515 0 46.9405 0 39.7184V10.8321ZM17.7479 7.22206H14.5077C12.3466 7.22206 11.2665 8.42606 11.2665 10.8321V21.6652H17.7479C22.0683 21.6652 24.2294 19.2582 24.2294 14.4431C24.2294 9.62909 22.0683 7.22206 17.7479 7.22206ZM17.7479 28.8872H11.2665V39.7657C11.2665 42.1844 12.3466 43.3932 14.5077 43.3932H17.7479C22.0692 43.3932 24.2294 40.9755 24.2294 36.1402C24.2294 31.3049 22.0692 28.8872 17.7479 28.8872Z" fill="#E50914"/>
<path d="M38.6328 50.5776H49.2639V17.8783C49.2639 16.3448 47.632 15.3882 46.3309 16.1593L39.8267 20.0138C39.088 20.4515 38.6328 21.2564 38.6328 22.1271V50.5776Z" fill="#E50914"/>
<path d="M86.8344 32.4487V50.5029H76.2043V32.4487C76.2043 25.2266 73.8412 21.6165 69.1169 21.6165L66.6163 21.6639C64.2541 21.6639 63.0725 22.8679 63.0725 25.2739V50.5502H52.4424V25.2739C52.4424 18.0528 57.1667 14.4418 66.6163 14.4418L69.1169 14.3945C80.9286 14.3945 86.8344 20.4125 86.8344 32.4487Z" fill="#E50914"/>
<path d="M107.731 50.5536C95.9452 50.5536 90.0393 44.5617 90.0137 32.5767C89.9929 22.5718 97.9442 14.4462 107.763 14.4453H111.275C120.725 14.4453 125.449 18.0563 125.449 25.2774V46.9426C125.449 56.9138 117.517 64.9968 107.731 64.9968H99.6548C98.4202 64.9968 97.7336 63.5425 98.5036 62.5598L101.082 59.2686C101.822 58.3245 102.943 57.7757 104.128 57.7757H107.731C111.818 57.7757 114.133 55.0788 114.676 49.6869C112.645 50.2647 110.33 50.5536 107.731 50.5536ZM100.645 32.4994C100.645 39.7205 103.006 43.3325 107.731 43.3325C112.456 43.3325 114.819 39.7205 114.819 32.4994V25.2774C114.819 22.8713 113.637 21.6673 111.275 21.6673H107.731C103.006 21.6673 100.645 25.2774 100.645 32.4994Z" fill="#E50914"/>
<path d="M164.062 32.4995L164.089 35.321C164.094 35.7559 163.75 36.1105 163.323 36.1105H140.423C139.939 36.1105 139.571 36.5675 139.67 37.0507C140.528 41.2386 142.753 43.3326 146.344 43.3326C150.622 43.3326 152.963 42.0677 153.368 40.0404C153.443 39.6645 153.746 39.3814 154.124 39.3814H163.212C163.68 39.3814 164.042 39.8056 163.975 40.2771C163.214 45.7338 158.198 50.0415 148.196 50.5111C137.223 51.0262 128.053 41.7778 128.679 30.6026C129.282 19.8314 135.171 14.4453 146.344 14.4453C158.156 14.4453 164.062 20.4633 164.062 32.4995ZM152.265 28.8894C152.751 28.8894 153.118 28.4323 153.019 27.9482C152.16 23.7613 149.935 21.6673 146.344 21.6673C142.753 21.6673 140.528 23.7613 139.67 27.9482C139.571 28.4323 139.939 28.8894 140.423 28.8894H152.265Z" fill="#E50914"/>
<path d="M40.835 1.95849L49.2804 6.89141C50.7132 7.72918 50.7388 9.82218 49.3259 10.66L41.001 15.5929C39.588 16.4307 37.7958 15.3842 37.7759 13.7086L37.6555 3.84276C37.6346 2.16818 39.4012 1.12168 40.835 1.95849Z" fill="#666666"/>
<path d="M38.6416 4.09537V13.6365C38.6416 14.6048 39.6705 15.2097 40.4936 14.7256L48.6023 9.95592C49.4254 9.47181 49.4254 8.26105 48.6023 7.77694L40.4936 3.00636C39.6705 2.52225 38.6416 3.12715 38.6416 4.09537Z" fill="white"/>
</g>
<defs>
<clipPath id="clip0_379_23236">
<rect width="165" height="65" fill="white"/>
</clipPath>
</defs>
</svg>
