<svg width="152" height="52" viewBox="0 0 152 52" fill="none" xmlns="http://www.w3.org/2000/svg">
<g filter="url(#filter0_d_379_23244)">
<rect x="2" y="1" width="148" height="48" rx="24" fill="#FF4A50"/>
<path d="M23.56 31L20.216 19.48H21.968L24.392 28.192L26.816 19.488L28.576 19.48L31 28.192L33.424 19.48H35.184L31.832 31H30.168L27.696 22.384L25.224 31H23.56ZM38.2475 31.24C37.6075 31.24 37.0715 31.1227 36.6395 30.888C36.2075 30.648 35.8795 30.3333 35.6555 29.944C35.4368 29.5493 35.3275 29.1173 35.3275 28.648C35.3275 28.2107 35.4048 27.8267 35.5595 27.496C35.7142 27.1653 35.9435 26.8853 36.2475 26.656C36.5515 26.4213 36.9248 26.232 37.3675 26.088C37.7515 25.976 38.1862 25.8773 38.6715 25.792C39.1568 25.7067 39.6662 25.6267 40.1995 25.552C40.7382 25.4773 41.2715 25.4027 41.7995 25.328L41.1915 25.664C41.2022 24.9867 41.0582 24.4853 40.7595 24.16C40.4662 23.8293 39.9595 23.664 39.2395 23.664C38.7862 23.664 38.3702 23.7707 37.9915 23.984C37.6128 24.192 37.3488 24.5387 37.1995 25.024L35.6395 24.544C35.8528 23.8027 36.2582 23.2133 36.8555 22.776C37.4582 22.3387 38.2582 22.12 39.2555 22.12C40.0288 22.12 40.7008 22.2533 41.2715 22.52C41.8475 22.7813 42.2688 23.1973 42.5355 23.768C42.6742 24.0507 42.7595 24.3493 42.7915 24.664C42.8235 24.9787 42.8395 25.3173 42.8395 25.68V31H41.3595V29.024L41.6475 29.28C41.2902 29.9413 40.8342 30.4347 40.2795 30.76C39.7302 31.08 39.0528 31.24 38.2475 31.24ZM38.5435 29.872C39.0182 29.872 39.4262 29.7893 39.7675 29.624C40.1088 29.4533 40.3835 29.2373 40.5915 28.976C40.7995 28.7147 40.9355 28.4427 40.9995 28.16C41.0902 27.904 41.1408 27.616 41.1515 27.296C41.1675 26.976 41.1755 26.72 41.1755 26.528L41.7195 26.728C41.1915 26.808 40.7115 26.88 40.2795 26.944C39.8475 27.008 39.4555 27.072 39.1035 27.136C38.7568 27.1947 38.4475 27.2667 38.1755 27.352C37.9462 27.432 37.7408 27.528 37.5595 27.64C37.3835 27.752 37.2422 27.888 37.1355 28.048C37.0342 28.208 36.9835 28.4027 36.9835 28.632C36.9835 28.856 37.0395 29.064 37.1515 29.256C37.2635 29.4427 37.4342 29.592 37.6635 29.704C37.8928 29.816 38.1862 29.872 38.5435 29.872ZM49.8609 31C49.3169 31.1067 48.7835 31.152 48.2609 31.136C47.7382 31.12 47.2715 31.0187 46.8609 30.832C46.4502 30.6453 46.1409 30.352 45.9329 29.952C45.7462 29.5947 45.6449 29.232 45.6289 28.864C45.6182 28.4907 45.6129 28.0693 45.6129 27.6V19.96H47.2929V27.52C47.2929 27.8667 47.2955 28.168 47.3009 28.424C47.3115 28.68 47.3675 28.896 47.4689 29.072C47.6609 29.4027 47.9649 29.592 48.3809 29.64C48.8022 29.6827 49.2955 29.664 49.8609 29.584V31ZM43.9569 23.704V22.36H49.8609V23.704H43.9569ZM54.9879 31.24C54.1025 31.24 53.3505 31.0427 52.7319 30.648C52.1132 30.2533 51.6385 29.712 51.3079 29.024C50.9825 28.336 50.8172 27.5547 50.8119 26.68C50.8172 25.7893 50.9879 25.0027 51.3239 24.32C51.6599 23.632 52.1399 23.0933 52.7639 22.704C53.3879 22.3147 54.1372 22.12 55.0119 22.12C55.9559 22.12 56.7612 22.3547 57.4279 22.824C58.0999 23.2933 58.5425 23.936 58.7559 24.752L57.0919 25.232C56.9265 24.7467 56.6545 24.3707 56.2759 24.104C55.9025 23.832 55.4732 23.696 54.9879 23.696C54.4385 23.696 53.9879 23.8267 53.6359 24.088C53.2839 24.344 53.0225 24.696 52.8519 25.144C52.6812 25.592 52.5932 26.104 52.5879 26.68C52.5932 27.5707 52.7959 28.2907 53.1959 28.84C53.6012 29.3893 54.1985 29.664 54.9879 29.664C55.5265 29.664 55.9612 29.5413 56.2919 29.296C56.6279 29.0453 56.8839 28.688 57.0599 28.224L58.7559 28.624C58.4732 29.4667 58.0065 30.1147 57.3559 30.568C56.7052 31.016 55.9159 31.24 54.9879 31.24ZM66.4496 31V26.752C66.4496 26.416 66.4203 26.072 66.3616 25.72C66.3083 25.3627 66.2016 25.032 66.0416 24.728C65.887 24.424 65.6656 24.1787 65.3776 23.992C65.095 23.8053 64.7243 23.712 64.2656 23.712C63.967 23.712 63.6843 23.7627 63.4176 23.864C63.151 23.96 62.9163 24.1173 62.7136 24.336C62.5163 24.5547 62.359 24.8427 62.2416 25.2C62.1296 25.5573 62.0736 25.992 62.0736 26.504L61.0336 26.112C61.0336 25.328 61.1803 24.6373 61.4736 24.04C61.767 23.4373 62.1883 22.968 62.7376 22.632C63.287 22.296 63.951 22.128 64.7296 22.128C65.327 22.128 65.8283 22.224 66.2336 22.416C66.639 22.608 66.967 22.8613 67.2176 23.176C67.4736 23.4853 67.6683 23.824 67.8016 24.192C67.935 24.56 68.0256 24.92 68.0736 25.272C68.1216 25.624 68.1456 25.9333 68.1456 26.2V31H66.4496ZM60.3776 31V19.48H61.8736V25.696H62.0736V31H60.3776ZM73.4325 31V19.48H75.1285L80.8005 28.04V19.48H82.4965V31H80.8005L75.1285 22.432V31H73.4325ZM88.4814 31.24C87.6174 31.24 86.868 31.0453 86.2334 30.656C85.5987 30.2667 85.108 29.7307 84.7614 29.048C84.42 28.36 84.2494 27.568 84.2494 26.672C84.2494 25.7707 84.4254 24.9787 84.7774 24.296C85.1294 23.608 85.6227 23.0747 86.2574 22.696C86.892 22.312 87.6334 22.12 88.4814 22.12C89.3454 22.12 90.0947 22.3147 90.7294 22.704C91.364 23.0933 91.8547 23.6293 92.2014 24.312C92.548 24.9947 92.7214 25.7813 92.7214 26.672C92.7214 27.5733 92.5454 28.368 92.1934 29.056C91.8467 29.7387 91.356 30.2747 90.7214 30.664C90.0867 31.048 89.34 31.24 88.4814 31.24ZM88.4814 29.664C89.308 29.664 89.924 29.3867 90.3294 28.832C90.74 28.272 90.9454 27.552 90.9454 26.672C90.9454 25.7707 90.7374 25.0507 90.3214 24.512C89.9107 23.968 89.2974 23.696 88.4814 23.696C87.9214 23.696 87.46 23.824 87.0974 24.08C86.7347 24.3307 86.4654 24.68 86.2894 25.128C86.1134 25.5707 86.0254 26.0853 86.0254 26.672C86.0254 27.5787 86.2334 28.304 86.6494 28.848C87.0654 29.392 87.676 29.664 88.4814 29.664ZM96.0069 31L93.3669 22.352L95.0229 22.36L96.8309 28.288L98.6549 22.36H100.095L101.919 28.288L103.727 22.36H105.375L102.735 31H101.391L99.3749 24.744L97.3509 31H96.0069Z" fill="white"/>
<path d="M118.167 19.1576C118.167 18.3483 118.167 17.9436 118.335 17.7206C118.482 17.5263 118.707 17.406 118.95 17.3915C119.23 17.3748 119.566 17.5993 120.24 18.0482L129.003 23.8902C129.559 24.2611 129.837 24.4466 129.934 24.6804C130.019 24.8847 130.019 25.1144 129.934 25.3188C129.837 25.5526 129.559 25.738 129.003 26.109L120.24 31.951C119.566 32.3999 119.23 32.6243 118.95 32.6077C118.707 32.5931 118.482 32.4729 118.335 32.2786C118.167 32.0555 118.167 31.6509 118.167 30.8416V19.1576Z" stroke="white" stroke-width="1.66667" stroke-linecap="round" stroke-linejoin="round"/>
</g>
<defs>
<filter id="filter0_d_379_23244" x="0" y="0" width="152" height="52" filterUnits="userSpaceOnUse" color-interpolation-filters="sRGB">
<feFlood flood-opacity="0" result="BackgroundImageFix"/>
<feColorMatrix in="SourceAlpha" type="matrix" values="0 0 0 0 0 0 0 0 0 0 0 0 0 0 0 0 0 0 127 0" result="hardAlpha"/>
<feOffset dy="1"/>
<feGaussianBlur stdDeviation="1"/>
<feComposite in2="hardAlpha" operator="out"/>
<feColorMatrix type="matrix" values="0 0 0 0 0.0627451 0 0 0 0 0.0941176 0 0 0 0 0.156863 0 0 0 0.05 0"/>
<feBlend mode="normal" in2="BackgroundImageFix" result="effect1_dropShadow_379_23244"/>
<feBlend mode="normal" in="SourceGraphic" in2="effect1_dropShadow_379_23244" result="shape"/>
</filter>
</defs>
</svg>
